<svg version="1.1" id="Layer_1" xmlns="http://www.w3.org/2000/svg" xmlns:xlink="http://www.w3.org/1999/xlink" x="0px" y="0px"
	 width="100%" viewBox="0 0 1024 1024" enable-background="new 0 0 1024 1024" xml:space="preserve">
<path fill="#000000" opacity="1.000000" stroke="none" 
	d="
M233.415405,481.873230 
	C239.689880,506.824738 227.486069,529.838562 204.928894,535.468811 
	C192.683990,538.525085 181.152466,536.612061 170.999039,528.557312 
	C170.020401,527.781006 169.277725,526.481567 167.751633,526.525208 
	C165.779861,535.147888 165.779861,535.147888 156.224731,535.146545 
	C146.799316,535.145203 146.809479,535.145203 146.808273,525.656006 
	C146.804657,497.345276 146.684250,469.033813 146.885422,440.724579 
	C146.920639,435.766846 145.646622,433.817017 140.459091,434.187134 
	C134.494263,434.612762 128.473221,434.181854 122.481537,434.327179 
	C119.256989,434.405365 117.953583,433.057861 117.970085,429.915253 
	C118.017311,420.922852 118.003685,411.929779 117.940117,402.937469 
	C117.919106,399.964539 119.263069,398.777832 122.194321,398.804535 
	C131.019867,398.885010 139.847565,398.924042 148.672195,398.808289 
	C152.069733,398.763733 153.476776,400.018982 153.363525,403.498688 
	C153.184906,408.988251 153.446808,414.491638 153.290710,419.982605 
	C153.194489,423.367004 154.426651,424.678009 157.912186,424.772034 
	C167.964401,425.043243 167.958878,425.169586 167.954788,435.460663 
	C167.951492,443.768097 167.954117,452.075500 167.954117,461.776123 
	C183.166214,450.277863 198.542557,448.566589 214.448944,456.822449 
	C224.447281,462.011871 230.406662,470.667908 233.415405,481.873230 
M170.780151,481.356689 
	C170.128586,482.702637 169.329086,483.998077 168.849335,485.402710 
	C165.576111,494.986115 166.898682,503.876648 173.669922,511.491943 
	C179.760681,518.341919 187.774734,520.049500 196.454544,518.184753 
	C206.314804,516.066406 213.199051,507.547333 213.698059,497.518768 
	C214.322891,484.960876 208.831741,475.506958 198.822906,471.908783 
	C188.214569,468.095032 178.023590,471.355957 170.780151,481.356689 
M142.068787,408.038971 
	C139.076859,407.943787 136.069687,408.005493 133.096542,407.716797 
	C128.591278,407.279388 126.820595,408.946106 126.983643,413.645996 
	C127.452782,427.168884 125.191071,425.562012 139.505386,425.651093 
	C141.131134,425.661194 142.916534,425.919617 144.101456,424.351959 
	C145.551636,422.433350 144.653610,410.607635 142.068787,408.038971 
z"/>
<path fill="#000000" opacity="1.000000" stroke="none" 
	d="
M481.090302,497.728638 
	C480.563690,501.911224 477.651031,501.229675 475.274017,501.237762 
	C458.282745,501.295624 441.291199,501.275360 424.299866,501.320984 
	C422.507172,501.325775 420.629639,500.890930 418.949402,501.915985 
	C418.750732,507.931458 424.052368,514.930054 431.325897,517.682983 
	C441.741638,521.625305 451.716248,520.587158 460.510315,513.565063 
	C463.394287,511.262177 465.313049,511.188904 467.640564,513.741699 
	C467.862061,513.984680 468.155518,514.162903 468.418976,514.366821 
	C477.680298,521.536255 477.675781,521.530151 468.112061,528.724609 
	C447.475616,544.248840 405.133148,537.855225 398.187805,504.479431 
	C394.537750,486.939178 401.198822,469.027191 415.144592,459.560913 
	C428.989807,450.162994 449.693359,449.873535 463.818726,459.479156 
	C477.049377,468.476288 481.203888,481.992035 481.090302,497.728638 
M422.744873,476.268494 
	C420.405304,479.594025 417.774933,482.804626 418.105499,487.554993 
	C432.434601,487.554993 446.483002,487.554993 460.470276,487.554993 
	C461.341858,485.166473 460.438507,483.337402 459.676697,481.532867 
	C453.782166,467.570160 435.536072,464.678040 422.744873,476.268494 
z"/>
<path fill="#000000" opacity="1.000000" stroke="none" 
	d="
M710.402832,469.427734 
	C702.520081,470.425751 695.338257,472.320160 688.632568,476.022797 
	C685.744568,472.137695 684.746094,467.854126 682.872253,464.004303 
	C681.922729,462.053619 683.175537,460.836182 684.820923,460.060120 
	C700.753784,452.545044 717.178528,449.518951 734.107971,456.125824 
	C747.227417,461.245758 751.463318,472.624298 751.954041,485.418549 
	C752.521851,500.220398 752.072327,515.059570 752.193176,529.881531 
	C752.221924,533.414551 750.674316,534.628418 747.349548,534.426025 
	C744.860291,534.274536 742.333130,534.180725 739.861206,534.434692 
	C735.349670,534.898254 732.208008,533.928833 732.680298,528.678101 
	C731.252808,527.938782 730.534424,528.874084 729.796753,529.419922 
	C718.184265,538.011536 705.492798,538.663208 692.344238,534.098877 
	C682.818665,530.792175 676.973083,522.452515 676.649536,513.001953 
	C676.275574,502.077484 680.551270,494.006653 690.749573,489.392212 
	C696.154785,486.946442 701.842407,485.859314 707.710999,485.748993 
	C714.370789,485.623779 721.041199,485.523102 727.694092,485.765686 
	C732.030273,485.923767 732.755310,484.252136 731.855957,480.369476 
	C730.608948,474.986237 727.052429,472.170746 722.198425,470.602539 
	C718.523987,469.415344 714.699219,469.121613 710.402832,469.427734 
M732.649719,502.679382 
	C732.828186,500.183716 732.175049,498.410004 729.197449,498.429810 
	C721.063538,498.483948 712.887207,497.881470 704.840210,499.472076 
	C700.076782,500.413605 696.696167,503.173065 695.660217,508.162292 
	C694.720947,512.686035 696.062988,516.676025 699.935791,519.039246 
	C707.368530,523.574646 715.224731,522.796326 722.862854,519.454163 
	C729.698425,516.463196 732.685669,510.857269 732.649719,502.679382 
z"/>
<path fill="#000000" opacity="1.000000" stroke="none" 
	d="
M261.484253,548.615173 
	C270.950836,545.598083 273.846191,539.141785 270.122650,530.547180 
	C259.670288,506.421021 249.270325,482.272156 238.867371,458.124664 
	C238.482925,457.232269 238.283203,456.260345 237.783859,454.627045 
	C244.245514,453.342896 250.483856,453.774994 256.654449,454.313934 
	C258.857910,454.506348 259.193756,457.180939 259.952728,458.975220 
	C266.565186,474.607483 273.129120,490.260223 279.738647,505.893738 
	C280.572144,507.865143 281.585968,509.760315 282.837341,512.357178 
	C286.742737,506.387482 288.394867,500.118256 290.878143,494.270325 
	C295.951385,482.323273 300.780945,470.269928 305.514282,458.183350 
	C306.721344,455.101074 308.398468,453.600830 311.773987,453.787659 
	C316.542450,454.051544 321.364136,453.297211 325.905975,454.256439 
	C326.906464,455.920959 326.181610,457.130585 325.670319,458.335114 
	C312.926941,488.356720 300.313416,518.434570 287.371155,548.370239 
	C279.575653,566.401489 263.648132,569.307556 247.863602,564.231323 
	C244.436539,563.129211 243.310394,561.453552 245.215271,557.987061 
	C247.049683,554.648804 247.605606,550.097473 250.235535,547.844482 
	C253.105072,545.386169 257.259857,549.686584 261.484253,548.615173 
z"/>
<path fill="#000000" opacity="1.000000" stroke="none" 
	d="
M789.316895,518.709106 
	C795.130798,520.818054 800.761536,521.307861 806.439819,520.584717 
	C810.846863,520.023438 814.653259,518.149048 815.105591,513.098816 
	C815.527649,508.386902 812.212036,506.265472 808.289307,505.127563 
	C801.099182,503.041870 793.807312,501.299622 786.645264,499.126038 
	C778.358948,496.611237 771.272827,492.530060 768.838074,483.335541 
	C766.020569,472.696167 770.676208,462.028992 780.463318,456.660034 
	C794.152466,449.150543 817.129639,451.950134 829.474854,461.294312 
	C834.644531,465.207214 826.599548,469.382385 825.637329,473.816895 
	C825.046997,476.537537 822.986572,476.079712 820.926636,474.911865 
	C813.568420,470.740204 805.741394,468.125000 797.168457,468.303864 
	C795.684326,468.334869 794.170593,468.485596 792.731812,468.834076 
	C789.442322,469.630798 786.791748,471.310883 786.432007,475.016937 
	C786.070740,478.737366 788.370789,480.869202 791.457031,482.271973 
	C796.345581,484.494019 801.666321,485.252533 806.785889,486.696686 
	C811.265869,487.960419 815.789856,489.174805 820.108948,490.880463 
	C829.131592,494.443542 833.760559,501.510559 833.944641,510.991333 
	C834.119385,519.991577 830.045471,526.941650 821.924255,531.369751 
	C806.335449,539.869507 780.377686,537.164124 766.630493,525.500549 
	C765.213074,524.298096 763.498047,523.069153 764.985168,520.966492 
	C767.455078,517.474243 769.113220,513.397766 772.612854,510.022339 
	C777.772156,513.550171 783.072144,516.649902 789.316895,518.709106 
z"/>
<path fill="#000000" opacity="1.000000" stroke="none" 
	d="
M905.650879,470.629456 
	C904.560547,472.341125 903.686096,473.758179 902.766357,475.145233 
	C902.596619,475.401245 902.243713,475.535858 901.469604,476.085632 
	C895.465393,472.872650 889.047913,469.806091 881.895203,468.772797 
	C878.071960,468.220428 874.267151,467.870636 870.490906,468.785706 
	C867.375305,469.540680 864.903015,471.304932 864.476685,474.701111 
	C864.047668,478.118500 866.054443,480.290222 868.918396,481.833038 
	C872.643005,483.839478 876.769592,484.572693 880.797058,485.564362 
	C886.461548,486.959167 892.094543,488.424469 897.529358,490.566193 
	C906.259705,494.006653 911.398621,500.356873 912.002808,509.744019 
	C912.585022,518.790649 908.920166,526.124023 901.033447,530.739014 
	C887.156494,538.859131 872.660522,537.774353 858.099854,532.775391 
	C853.193359,531.090881 848.658630,528.589539 844.470093,525.514587 
	C842.966492,524.410828 841.433472,523.207520 842.916443,521.008972 
	C845.231079,517.577454 847.532043,514.136719 849.706482,510.897034 
	C852.212158,510.478516 853.423340,512.164368 854.920532,513.063293 
	C863.379822,518.142456 872.318420,521.459473 882.368591,520.771729 
	C884.172363,520.648254 885.985046,520.260010 887.730957,519.770752 
	C891.142090,518.814819 893.224731,516.461975 893.340637,512.940369 
	C893.448120,509.671936 891.680115,507.350708 888.665649,505.893829 
	C883.967529,503.623291 878.878662,502.688416 873.921692,501.284149 
	C869.283203,499.970123 864.618896,498.695740 860.087585,497.065826 
	C851.340088,493.919373 846.492737,487.422455 846.010742,478.271088 
	C845.538879,469.310760 849.065979,461.976105 857.164551,457.425934 
	C868.698975,450.945343 880.834534,451.740509 893.079895,454.804688 
	C897.292908,455.858948 901.289429,457.561859 905.148621,459.549072 
	C910.382874,462.244293 910.476746,462.661316 907.396667,467.753967 
	C906.879272,468.609467 906.366272,469.467621 905.650879,470.629456 
z"/>
<path fill="#000000" opacity="1.000000" stroke="none" 
	d="
M543.128967,494.134369 
	C543.692627,485.966553 545.446289,478.618896 549.475830,471.863464 
	C563.272461,448.733643 601.850281,445.334869 619.404053,465.763214 
	C620.040833,466.504211 620.536987,467.366028 621.490845,468.733795 
	C617.200623,472.037323 613.118469,475.349884 608.847656,478.398132 
	C606.700562,479.930573 605.618042,477.571381 604.316467,476.495117 
	C590.689270,465.226593 570.526428,470.034302 565.073669,485.876373 
	C561.185608,497.172272 565.012695,509.117188 574.537415,515.414368 
	C583.351379,521.241638 596.327393,520.221252 604.584351,512.648865 
	C607.153137,510.293091 608.972961,510.396606 611.438293,512.369812 
	C613.904724,514.343811 616.481567,516.204956 619.149841,517.894775 
	C621.933777,519.657837 621.661499,521.216614 619.547546,523.392151 
	C605.754517,537.587036 589.087524,539.819092 571.223633,533.992554 
	C554.652588,528.587708 545.292236,516.613708 543.551208,499.035980 
	C543.403687,497.546661 543.249695,496.057953 543.128967,494.134369 
z"/>
<path fill="#000000" opacity="1.000000" stroke="none" 
	d="
M384.844086,534.144531 
	C378.606415,536.819580 372.408722,536.847473 366.277130,536.142822 
	C354.336761,534.770569 345.895264,525.198730 345.705566,512.895813 
	C345.520569,500.900330 345.481750,488.897156 345.707611,476.903564 
	C345.792419,472.400085 344.432037,470.643250 339.747864,470.816956 
	C333.214081,471.059265 333.027039,470.600006 333.053589,464.097839 
	C333.056976,463.264709 333.076569,462.431519 333.073334,461.598419 
	C333.045074,454.295105 333.043304,454.121490 340.479797,454.091644 
	C344.314514,454.076263 345.933228,452.827362 345.696716,448.852142 
	C345.439941,444.535431 345.719452,440.189453 345.643036,435.858368 
	C345.598419,433.329529 346.775818,432.184631 349.201630,432.112579 
	C349.534576,432.102692 349.867432,432.062866 350.199951,432.067017 
	C368.807220,432.298340 364.898376,429.583130 365.290405,446.314697 
	C365.469788,453.971283 365.322815,453.976746 372.920807,454.025543 
	C376.420197,454.048035 379.920105,454.032501 383.418762,454.093750 
	C384.575623,454.114014 386.170166,453.877014 386.812134,454.514893 
	C390.721985,458.399628 387.594757,463.243042 388.262329,467.623810 
	C388.683502,470.387817 386.415924,470.841614 384.302429,470.870697 
	C379.470947,470.937164 374.636902,470.962891 369.806091,470.879211 
	C366.716278,470.825745 365.260956,471.967865 365.298767,475.272888 
	C365.420807,485.936554 365.178650,496.606140 365.408691,507.266266 
	C365.612305,516.702332 372.262604,521.163391 381.119232,517.531494 
	C385.401367,515.775513 387.260590,516.830139 388.415558,520.816345 
	C388.645508,521.609985 389.051697,522.353638 389.387726,523.115479 
	C392.608521,530.417725 392.609192,530.417419 384.844086,534.144531 
z"/>
<path fill="#000000" opacity="1.000000" stroke="none" 
	d="
M200.066086,625.649414 
	C204.719193,625.636658 208.896500,625.386597 213.035294,625.680054 
	C217.364975,625.987122 218.931946,624.435486 218.860153,620.028809 
	C218.651459,607.218323 218.948807,594.399475 218.722336,581.589661 
	C218.642303,577.062256 220.072464,575.490234 224.699753,575.587463 
	C237.341675,575.853271 249.995239,575.803589 262.639374,575.591187 
	C266.819977,575.520874 268.563843,576.548401 268.465118,581.138611 
	C268.186066,594.112915 268.281158,607.098450 268.443756,620.076904 
	C268.491547,623.892883 267.279175,625.434265 263.304413,625.363953 
	C252.657196,625.175781 242.001099,625.456055 231.355408,625.228577 
	C227.337280,625.142700 226.156754,626.593567 226.265167,630.448486 
	C226.489624,638.429993 226.195450,646.425415 226.379440,654.409058 
	C226.463531,658.058167 225.192978,659.460449 221.488892,659.374878 
	C213.505219,659.190491 205.511765,659.198730 197.527557,659.371216 
	C193.845139,659.450745 192.530716,658.049194 192.623093,654.399353 
	C192.808319,647.081848 192.654495,639.756104 192.670914,632.433899 
	C192.685974,625.715149 192.703537,625.715210 200.066086,625.649414 
M255.798706,589.548706 
	C248.290939,586.435974 240.523529,588.281250 232.861542,588.462891 
	C231.296402,588.500000 231.195465,590.351990 231.189133,591.692932 
	C231.161636,597.519958 231.206177,603.347351 231.174316,609.174316 
	C231.160858,611.636780 232.232544,612.875488 234.759171,612.856323 
	C240.586014,612.812256 246.413223,612.812561 252.240295,612.805664 
	C254.342026,612.803162 255.852234,612.093689 255.886917,609.711365 
	C255.981155,603.240479 256.044647,596.769165 255.798706,589.548706 
M204.004532,650.657715 
	C206.495209,650.678467 209.018661,650.449829 211.469772,650.771790 
	C216.607224,651.446472 218.068161,649.333496 217.846909,644.334412 
	C217.342560,632.939026 219.573441,634.091797 206.857346,633.948914 
	C205.077347,633.928894 203.090637,633.568909 201.728409,635.178345 
	C200.101181,637.100769 201.197113,648.388672 204.004532,650.657715 
z"/>
<path fill="#000000" opacity="1.000000" stroke="none" 
	d="
M637.856689,527.921265 
	C635.500305,523.905701 634.667847,519.910645 634.672424,515.654297 
	C634.702881,487.033386 634.764954,458.411987 634.607910,429.791931 
	C634.584045,425.447327 635.977600,423.869080 640.312561,423.974548 
	C655.869568,424.352966 653.842590,421.935486 653.918640,437.424561 
	C654.033081,460.720032 653.991211,484.016205 654.070984,507.311920 
	C654.109741,518.645630 654.959290,519.374390 666.324463,518.330811 
	C668.488403,521.843262 668.895386,526.038696 670.091614,529.950562 
	C670.580444,531.549072 669.889160,532.838989 668.362122,533.682251 
	C660.437134,538.058655 643.431152,537.862976 637.856689,527.921265 
z"/>
<path fill="#000000" opacity="1.000000" stroke="none" 
	d="
M299.332031,599.815918 
	C299.530640,603.075684 298.132294,604.220764 295.457153,604.198364 
	C290.294037,604.155151 285.130402,604.161621 279.966980,604.162537 
	C277.002106,604.163025 275.819183,602.583313 275.857361,599.750916 
	C275.922363,594.921082 275.942841,590.090271 275.933533,585.260010 
	C275.927917,582.337585 277.391235,581.019165 280.241180,581.005798 
	C284.405304,580.986267 288.583466,580.692932 292.729340,580.946472 
	C297.183563,581.218933 298.658295,579.175537 298.611725,575.053528 
	C298.498779,565.060364 298.689575,555.061523 298.433533,545.073303 
	C298.327362,540.932068 299.729248,539.550598 303.867920,539.636230 
	C314.690613,539.860168 325.522614,539.807373 336.347687,539.646729 
	C340.044983,539.591858 341.353821,541.007263 341.309448,544.628723 
	C341.176849,555.454529 341.139282,566.284912 341.321930,577.109192 
	C341.387756,581.010498 340.009369,582.415222 336.106659,582.348206 
	C325.782074,582.170776 315.449005,582.446289 305.126312,582.220337 
	C300.891998,582.127686 298.933838,583.321228 299.295837,587.848999 
	C299.600159,591.655151 299.342529,595.506287 299.332031,599.815918 
M323.362122,550.249573 
	C319.869293,550.255371 316.375092,550.322693 312.884033,550.247253 
	C310.155701,550.188232 308.925751,551.420105 308.931335,554.124207 
	C308.941315,558.947144 308.952576,563.772461 308.807861,568.592163 
	C308.733368,571.073669 309.951508,571.788635 312.146515,571.768250 
	C316.969543,571.723511 321.794250,571.674438 326.616119,571.755981 
	C329.622284,571.806885 330.791870,570.437378 330.701508,567.510132 
	C330.588715,563.854431 330.355927,560.157959 330.750519,556.541809 
	C331.312347,551.393066 329.311249,549.426331 323.362122,550.249573 
z"/>
<path fill="#000000" opacity="1.000000" stroke="none" 
	d="
M319.242554,451.173553 
	C307.120636,452.829590 295.330994,451.793213 283.556885,451.894318 
	C280.839966,451.917633 279.866150,450.202209 279.883118,447.624084 
	C279.952026,437.147308 279.995575,426.669983 279.967682,416.193085 
	C279.958710,412.825592 281.366730,411.511963 284.804718,411.585602 
	C292.949951,411.760193 301.105408,411.488708 309.248932,411.699249 
	C313.241760,411.802490 315.282288,410.595123 314.821442,406.338348 
	C314.679108,405.023956 314.810791,403.679962 314.815674,402.349518 
	C314.859558,390.381256 313.757172,391.818207 325.619843,391.797821 
	C336.634369,391.778870 336.139557,390.110779 336.181091,402.144379 
	C336.182251,402.476990 336.181580,402.809601 336.181244,403.142212 
	C336.170685,414.182007 337.003052,413.340576 326.346863,413.103363 
	C321.797516,413.002106 320.148376,414.488525 320.290649,419.102692 
	C320.562164,427.908081 320.357025,436.728638 320.320312,445.542755 
	C320.312805,447.348907 320.647980,449.218384 319.242554,451.173553 
M293.001129,441.817139 
	C296.990570,441.834320 301.000702,441.603058 304.964142,441.932831 
	C309.707123,442.327454 311.197968,440.290100 310.737549,435.843292 
	C310.465088,433.211700 310.695801,430.528534 310.691772,427.868561 
	C310.681793,421.282623 310.679810,421.282654 304.126587,421.270691 
	C290.228760,421.245300 290.171356,421.245758 290.286865,435.035522 
	C290.305939,437.312561 289.054321,440.163757 293.001129,441.817139 
M330.266602,398.327545 
	C327.009308,396.716187 323.204895,395.883331 320.837036,398.754883 
	C319.287872,400.633606 319.259033,404.568878 321.083527,406.744324 
	C322.882721,408.889557 326.154785,407.949432 328.667145,407.487305 
	C331.709412,406.927612 330.486847,404.064484 330.715210,402.086029 
	C330.827789,401.110626 330.630371,400.099426 330.266602,398.327545 
z"/>
<path fill="#000000" opacity="1.000000" stroke="none" 
	d="
M250.284393,672.634460 
	C250.282669,668.090820 250.397110,663.932129 250.132416,659.797791 
	C249.904892,656.243896 250.985275,654.460449 254.830490,654.672363 
	C258.313232,654.864136 261.833038,654.474976 265.305176,654.744812 
	C269.521179,655.072449 270.502472,652.665283 270.524200,649.275879 
	C270.576385,641.132874 270.742706,632.983826 270.490662,624.848755 
	C270.371002,620.986145 271.995880,619.884888 275.467621,619.906738 
	C284.450897,619.963318 293.435974,619.942444 302.418457,619.817871 
	C305.806000,619.770935 307.217346,621.140320 307.180695,624.556824 
	C307.082642,633.706116 307.109833,642.857788 307.200897,652.007324 
	C307.232880,655.223267 305.853790,656.414551 302.683533,656.366333 
	C294.533112,656.242432 286.377197,656.436157 278.228455,656.266052 
	C274.585205,656.190002 273.086914,657.494019 273.258759,661.200928 
	C273.458771,665.516602 273.214539,669.851013 273.289001,674.175110 
	C273.336426,676.927673 272.075562,678.127441 269.396667,678.113403 
	C264.405884,678.087280 259.414490,678.069885 254.424072,678.120422 
	C250.852936,678.156616 249.681503,676.331238 250.284393,672.634460 
M281.152191,647.535339 
	C285.455109,647.574036 289.758331,647.593933 294.060852,647.658752 
	C296.532013,647.695984 297.478607,646.517517 297.736603,644.065430 
	C299.287018,629.330078 299.062561,629.030334 284.495361,629.275146 
	C283.503082,629.291809 282.507629,629.305725 281.520599,629.396240 
	C280.433716,629.495850 279.425446,630.095154 279.448547,631.169983 
	C279.563843,636.527466 278.023376,641.989136 281.152191,647.535339 
M267.599915,663.884033 
	C267.734894,660.959961 266.000946,660.064331 263.503906,660.406067 
	C261.081879,660.737549 257.899078,658.929688 256.421143,662.183350 
	C253.830200,667.886963 256.852264,671.970215 263.023224,671.985596 
	C268.803345,672.000061 267.421234,667.984863 267.599915,663.884033 
z"/>
<path fill="#000000" opacity="1.000000" stroke="none" 
	d="
M337.055176,520.918518 
	C336.944458,529.363770 336.944458,529.368347 329.121735,529.354919 
	C324.626740,529.347229 320.129944,529.237366 315.637360,529.333374 
	C312.492157,529.400452 310.990906,528.006165 310.988892,524.905762 
	C310.985291,519.412659 310.955109,513.919373 310.992554,508.426514 
	C311.008453,506.093872 312.073792,504.689789 314.609619,504.636749 
	C320.430573,504.515106 326.249756,504.309509 332.070618,504.182068 
	C335.627869,504.104126 337.157990,505.886139 337.030640,509.447296 
	C336.899811,513.104431 337.038666,516.771240 337.055176,520.918518 
z"/>
<path fill="#000000" opacity="1.000000" stroke="none" 
	d="
M503.064087,482.701233 
	C511.363739,482.703949 519.177734,482.837616 526.984253,482.653534 
	C530.621460,482.567719 532.074341,483.920380 532.085449,487.544556 
	C532.130798,502.305481 532.610107,499.127197 521.095764,499.369263 
	C513.288391,499.533417 505.470490,499.238770 497.665405,499.449493 
	C493.718048,499.556122 492.118927,498.072662 492.626129,494.208374 
	C492.690430,493.718353 492.633942,493.212372 492.632080,492.713806 
	C492.594727,482.712006 492.594666,482.712006 503.064087,482.701233 
z"/>
<path fill="#000000" opacity="1.000000" stroke="none" 
	d="
M329.421661,596.815796 
	C330.412354,603.186523 329.879242,609.178894 329.880463,615.161926 
	C329.880920,617.487244 328.865112,618.991943 326.324005,619.008240 
	C320.497650,619.045654 314.671265,619.083984 308.844849,619.095276 
	C306.399658,619.099976 305.081573,617.778809 305.130890,615.386169 
	C305.250916,609.566162 305.485046,603.748291 305.697266,597.930481 
	C305.735138,596.892273 306.059540,595.627014 307.194183,595.659485 
	C314.542572,595.869385 321.992279,593.362854 329.421661,596.815796 
z"/>
<path fill="#000000" opacity="1.000000" stroke="none" 
	d="
M218.351013,551.366577 
	C217.788559,542.696167 217.788559,542.696167 226.148163,542.695129 
	C238.368668,542.693604 238.368668,542.693604 238.375488,554.670471 
	C238.380234,563.000000 238.380234,563.000000 229.872696,563.018677 
	C218.726715,563.043152 218.726715,563.043152 218.351013,551.366577 
M233.429947,554.256348 
	C233.441940,552.467285 234.321594,550.269958 232.832214,549.028259 
	C230.641724,547.202087 227.666580,547.663025 225.216537,548.368469 
	C222.154861,549.249878 223.562271,552.245667 223.354233,554.384949 
	C223.170380,556.275452 223.945648,557.935120 226.078705,557.591553 
	C228.615692,557.182800 232.382370,559.776001 233.429947,554.256348 
z"/>
<path fill="#000000" opacity="1.000000" stroke="none" 
	d="
M198.576447,676.840149 
	C203.784164,676.664795 208.602524,676.718018 213.413162,676.549866 
	C216.099213,676.455994 217.435211,677.279907 217.344635,680.184448 
	C217.210068,684.499939 217.226349,688.824524 217.332581,693.141541 
	C217.402145,695.969177 216.018967,697.031494 213.402649,696.998291 
	C212.240234,696.983521 211.055405,697.174438 209.918274,697.010925 
	C205.781860,696.416443 199.550125,699.243347 197.909027,695.264282 
	C195.646286,689.778076 195.738190,683.046814 198.576447,676.840149 
M208.273544,691.703491 
	C213.819489,692.049744 212.552032,687.982849 212.557816,684.912109 
	C212.566376,680.363525 209.060608,681.643860 206.464111,681.409241 
	C202.176163,681.021729 202.472565,683.856628 202.239594,686.820862 
	C201.916733,690.929016 203.738800,692.166382 208.273544,691.703491 
z"/>
<path fill="#000000" opacity="1.000000" stroke="none" 
	d="
M206.504669,607.711670 
	C201.768784,607.937866 197.464127,607.937439 193.164734,608.087830 
	C189.716919,608.208435 188.455460,606.622009 188.634399,603.266174 
	C188.819351,599.797852 188.812439,596.304260 188.627808,592.835693 
	C188.460724,589.696472 189.752472,588.440369 192.842773,588.108276 
	C207.864624,586.494019 208.381226,586.889099 208.203400,602.005554 
	C208.181061,603.904419 208.843613,606.045776 206.504669,607.711670 
M202.870224,598.438293 
	C203.025742,595.548340 202.861298,592.947876 198.835373,593.290710 
	C196.446732,593.494080 193.343475,592.669678 193.435684,596.568665 
	C193.487976,598.778931 191.929489,602.196228 195.716797,602.631348 
	C198.406921,602.940369 202.496811,604.615662 202.870224,598.438293 
z"/>
<path fill="#000000" opacity="1.000000" stroke="none" 
	d="
M137.915863,365.699280 
	C145.144531,365.799225 145.244843,365.800385 145.169617,372.268463 
	C145.000473,386.812500 147.242218,384.903015 132.541412,385.037079 
	C125.987640,385.096863 125.893005,384.930725 125.848129,378.328003 
	C125.845863,377.995270 125.847885,377.662537 125.846725,377.329803 
	C125.806129,365.703796 125.806099,365.703796 137.915863,365.699280 
M139.965103,374.604523 
	C140.335373,370.388153 137.639542,370.297729 134.535370,370.357544 
	C130.992874,370.425781 131.237045,372.807312 131.183670,375.166748 
	C131.127274,377.658417 131.277466,379.800537 134.668015,379.894196 
	C137.892548,379.983337 140.373825,379.543213 139.965103,374.604523 
z"/>
<path fill="#000000" opacity="1.000000" stroke="none" 
	d="
M143.851746,353.191498 
	C142.062759,353.194458 140.738220,353.122955 139.422989,353.203430 
	C136.130829,353.404816 134.386642,352.093018 134.702911,348.610291 
	C134.747482,348.119659 134.701080,347.620728 134.695587,347.125641 
	C134.609650,339.384125 138.265884,336.779724 145.733566,339.319550 
	C146.462891,339.567627 147.508835,340.053406 147.664490,340.629608 
	C148.664719,344.332306 148.701675,348.136688 147.753510,351.832703 
	C147.378586,353.294098 145.619827,353.083984 143.851746,353.191498 
M138.426056,345.682098 
	C138.214691,348.042236 139.445221,348.953827 141.648285,348.895844 
	C143.069351,348.858429 144.274002,348.497192 144.491058,346.837280 
	C144.641922,345.683685 144.767700,344.255859 143.586212,343.765289 
	C141.767639,343.010193 139.740601,342.562500 138.426056,345.682098 
z"/>
</svg>